<mxfile host="app.diagrams.net" agent="Mozilla/5.0 (Windows NT 10.0; Win64; x64) AppleWebKit/537.36 (KHTML, like Gecko) Chrome/130.0.0.0 Safari/537.36 OPR/115.0.0.0" version="25.0.3">
  <diagram id="C5RBs43oDa-KdzZeNtuy" name="Page-1">
    <mxGraphModel dx="613" dy="422" grid="1" gridSize="10" guides="1" tooltips="1" connect="1" arrows="1" fold="1" page="1" pageScale="1" pageWidth="827" pageHeight="1169" math="0" shadow="0">
      <root>
        <mxCell id="WIyWlLk6GJQsqaUBKTNV-0" />
        <mxCell id="WIyWlLk6GJQsqaUBKTNV-1" parent="WIyWlLk6GJQsqaUBKTNV-0" />
        <mxCell id="O5-iCAJtxgpB_8Q78EDK-3" style="edgeStyle=orthogonalEdgeStyle;rounded=0;orthogonalLoop=1;jettySize=auto;html=1;exitX=0.5;exitY=1;exitDx=0;exitDy=0;exitPerimeter=0;" edge="1" parent="WIyWlLk6GJQsqaUBKTNV-1" source="O5-iCAJtxgpB_8Q78EDK-0" target="O5-iCAJtxgpB_8Q78EDK-1">
          <mxGeometry relative="1" as="geometry" />
        </mxCell>
        <mxCell id="O5-iCAJtxgpB_8Q78EDK-0" value="Start" style="strokeWidth=2;html=1;shape=mxgraph.flowchart.terminator;whiteSpace=wrap;" vertex="1" parent="WIyWlLk6GJQsqaUBKTNV-1">
          <mxGeometry x="364" y="50" width="100" height="60" as="geometry" />
        </mxCell>
        <mxCell id="O5-iCAJtxgpB_8Q78EDK-4" style="edgeStyle=orthogonalEdgeStyle;rounded=0;orthogonalLoop=1;jettySize=auto;html=1;exitX=0.5;exitY=1;exitDx=0;exitDy=0;entryX=0.5;entryY=0;entryDx=0;entryDy=0;" edge="1" parent="WIyWlLk6GJQsqaUBKTNV-1" source="O5-iCAJtxgpB_8Q78EDK-1" target="O5-iCAJtxgpB_8Q78EDK-2">
          <mxGeometry relative="1" as="geometry" />
        </mxCell>
        <mxCell id="O5-iCAJtxgpB_8Q78EDK-1" value="Output &quot;Welcome to Forehead Mass Index (FMI)&quot;" style="shape=parallelogram;perimeter=parallelogramPerimeter;whiteSpace=wrap;html=1;fixedSize=1;" vertex="1" parent="WIyWlLk6GJQsqaUBKTNV-1">
          <mxGeometry x="261" y="140" width="306" height="60" as="geometry" />
        </mxCell>
        <mxCell id="O5-iCAJtxgpB_8Q78EDK-7" style="edgeStyle=orthogonalEdgeStyle;rounded=0;orthogonalLoop=1;jettySize=auto;html=1;exitX=0.5;exitY=1;exitDx=0;exitDy=0;" edge="1" parent="WIyWlLk6GJQsqaUBKTNV-1" source="O5-iCAJtxgpB_8Q78EDK-2" target="O5-iCAJtxgpB_8Q78EDK-5">
          <mxGeometry relative="1" as="geometry" />
        </mxCell>
        <mxCell id="O5-iCAJtxgpB_8Q78EDK-2" value="Input Name" style="shape=parallelogram;perimeter=parallelogramPerimeter;whiteSpace=wrap;html=1;fixedSize=1;" vertex="1" parent="WIyWlLk6GJQsqaUBKTNV-1">
          <mxGeometry x="354" y="230" width="120" height="60" as="geometry" />
        </mxCell>
        <mxCell id="O5-iCAJtxgpB_8Q78EDK-8" style="edgeStyle=orthogonalEdgeStyle;rounded=0;orthogonalLoop=1;jettySize=auto;html=1;exitX=0.5;exitY=1;exitDx=0;exitDy=0;entryX=0.5;entryY=0;entryDx=0;entryDy=0;" edge="1" parent="WIyWlLk6GJQsqaUBKTNV-1" source="O5-iCAJtxgpB_8Q78EDK-5" target="O5-iCAJtxgpB_8Q78EDK-6">
          <mxGeometry relative="1" as="geometry" />
        </mxCell>
        <mxCell id="O5-iCAJtxgpB_8Q78EDK-5" value="Input Forehead Volume" style="shape=parallelogram;perimeter=parallelogramPerimeter;whiteSpace=wrap;html=1;fixedSize=1;" vertex="1" parent="WIyWlLk6GJQsqaUBKTNV-1">
          <mxGeometry x="354" y="320" width="120" height="60" as="geometry" />
        </mxCell>
        <mxCell id="O5-iCAJtxgpB_8Q78EDK-10" style="edgeStyle=orthogonalEdgeStyle;rounded=0;orthogonalLoop=1;jettySize=auto;html=1;exitX=0.5;exitY=1;exitDx=0;exitDy=0;entryX=0.5;entryY=0;entryDx=0;entryDy=0;" edge="1" parent="WIyWlLk6GJQsqaUBKTNV-1" source="O5-iCAJtxgpB_8Q78EDK-6" target="O5-iCAJtxgpB_8Q78EDK-9">
          <mxGeometry relative="1" as="geometry" />
        </mxCell>
        <mxCell id="O5-iCAJtxgpB_8Q78EDK-6" value="Input Forehead&amp;nbsp;&lt;div&gt;Mass&lt;/div&gt;" style="shape=parallelogram;perimeter=parallelogramPerimeter;whiteSpace=wrap;html=1;fixedSize=1;" vertex="1" parent="WIyWlLk6GJQsqaUBKTNV-1">
          <mxGeometry x="354" y="410" width="120" height="60" as="geometry" />
        </mxCell>
        <mxCell id="O5-iCAJtxgpB_8Q78EDK-12" style="edgeStyle=orthogonalEdgeStyle;rounded=0;orthogonalLoop=1;jettySize=auto;html=1;exitX=0.5;exitY=1;exitDx=0;exitDy=0;entryX=0.5;entryY=0;entryDx=0;entryDy=0;" edge="1" parent="WIyWlLk6GJQsqaUBKTNV-1" source="O5-iCAJtxgpB_8Q78EDK-9" target="O5-iCAJtxgpB_8Q78EDK-11">
          <mxGeometry relative="1" as="geometry" />
        </mxCell>
        <mxCell id="O5-iCAJtxgpB_8Q78EDK-9" value="Input Age" style="shape=parallelogram;perimeter=parallelogramPerimeter;whiteSpace=wrap;html=1;fixedSize=1;" vertex="1" parent="WIyWlLk6GJQsqaUBKTNV-1">
          <mxGeometry x="354" y="500" width="120" height="60" as="geometry" />
        </mxCell>
        <mxCell id="O5-iCAJtxgpB_8Q78EDK-15" style="edgeStyle=orthogonalEdgeStyle;rounded=0;orthogonalLoop=1;jettySize=auto;html=1;exitX=0.5;exitY=1;exitDx=0;exitDy=0;entryX=0.5;entryY=0;entryDx=0;entryDy=0;" edge="1" parent="WIyWlLk6GJQsqaUBKTNV-1" source="O5-iCAJtxgpB_8Q78EDK-11" target="O5-iCAJtxgpB_8Q78EDK-13">
          <mxGeometry relative="1" as="geometry" />
        </mxCell>
        <mxCell id="O5-iCAJtxgpB_8Q78EDK-11" value="Calculates FMI" style="rounded=0;whiteSpace=wrap;html=1;" vertex="1" parent="WIyWlLk6GJQsqaUBKTNV-1">
          <mxGeometry x="354" y="590" width="120" height="60" as="geometry" />
        </mxCell>
        <mxCell id="O5-iCAJtxgpB_8Q78EDK-13" value="Output FMI" style="shape=parallelogram;perimeter=parallelogramPerimeter;whiteSpace=wrap;html=1;fixedSize=1;" vertex="1" parent="WIyWlLk6GJQsqaUBKTNV-1">
          <mxGeometry x="354" y="680" width="120" height="60" as="geometry" />
        </mxCell>
        <mxCell id="O5-iCAJtxgpB_8Q78EDK-16" value="Is FMI &amp;gt;&amp;nbsp;" style="rhombus;whiteSpace=wrap;html=1;" vertex="1" parent="WIyWlLk6GJQsqaUBKTNV-1">
          <mxGeometry x="320" y="770" width="200" height="100" as="geometry" />
        </mxCell>
      </root>
    </mxGraphModel>
  </diagram>
</mxfile>
